<svg width="261" height="261" viewBox="0 0 261 261" fill="none" xmlns="http://www.w3.org/2000/svg">
<g filter="url(#filter0_d)">
<path d="M100.87 158.878C100.87 158.878 85.2299 163.831 79.8894 155.068C74.9304 146.305 69.9714 145.543 69.9714 145.543C69.9714 145.543 71.8788 140.59 67.3012 135.256C62.7237 129.921 61.5793 129.54 61.5793 129.54C61.5793 129.54 54.7129 119.253 66.1568 92.5827C77.6006 65.9122 69.2085 38.8606 68.827 46.8618C68.4456 55.2439 60.8163 82.6765 47.4652 99.4408C33.7326 116.205 27.6292 131.446 32.2067 149.734C36.7842 168.022 52.8056 184.406 52.8056 184.406C52.8056 184.406 61.1978 184.025 74.9305 179.452C89.0445 175.642 100.87 158.878 100.87 158.878Z" fill="url(#paint0_radial)"/>
<path d="M52.4243 185.167C52.4243 185.167 36.403 168.784 31.8255 150.115C27.6294 132.969 32.2069 117.729 47.4654 99.0597C61.198 82.2953 68.4457 54.4817 68.8272 46.8616C68.8272 45.7186 69.2086 44.9565 69.59 44.9565C69.59 44.9565 70.353 44.9565 70.7345 45.3375C73.0233 48.0046 76.8378 70.8651 67.6827 92.9635C57.0018 117.729 62.3423 128.016 62.7238 129.54C63.1053 129.921 64.6311 131.064 68.4457 135.255C72.2603 139.828 71.8788 144.019 71.4974 145.543C73.0232 145.924 76.8378 148.21 81.0339 155.068C85.6114 163.069 100.87 158.497 101.251 158.497L103.159 157.735L102.014 159.259C101.633 160.021 89.8075 176.023 76.0749 180.595C62.3423 185.168 53.5688 185.549 53.5688 185.549L52.4243 185.167ZM79.5081 155.83C74.5491 147.448 70.353 146.686 69.9715 146.686H69.2087L69.59 145.924C69.59 145.924 71.4974 141.352 66.9199 136.398C62.7238 131.445 61.5795 131.064 61.5795 131.064H61.198C60.8165 130.683 54.3316 120.396 65.7754 93.3446C74.9305 72.0081 71.4974 51.4337 69.59 47.6236V48.0046C69.2086 55.6247 61.9609 83.8194 47.8469 100.965C32.9699 119.253 28.3924 134.112 32.5884 150.877C36.7845 168.022 50.8985 182.881 52.8058 184.787C54.3316 184.787 62.3424 184.024 74.5491 179.833C85.6115 176.404 95.5294 164.593 98.9626 160.402C94.7665 161.164 83.7041 163.069 79.5081 155.83Z" fill="url(#paint1_linear)"/>
<path d="M35.6401 197.36L21.9075 206.885L40.5992 207.266L35.6401 197.36Z" fill="#6B0D18"/>
<path d="M20 207.647L36.0214 196.598L41.7433 208.028L20 207.647ZM23.8146 206.123L39.836 206.504L35.6399 198.122L23.8146 206.123Z" fill="url(#paint2_linear)"/>
<path d="M100.87 143.257C100.87 143.257 93.622 166.879 66.5382 171.832C39.836 176.785 34.1141 180.215 32.5882 193.169C31.0624 206.123 39.073 212.219 50.5168 215.267C61.9607 218.315 73.4045 217.172 73.4045 217.172C73.4045 217.172 96.6736 244.224 124.902 233.937C153.13 223.649 204.627 192.788 228.278 181.739C251.928 170.689 234.763 166.498 212.256 169.546C189.369 172.594 186.699 177.929 186.699 177.929C186.699 177.929 174.873 176.023 168.77 178.31C162.666 180.977 161.141 184.025 161.141 184.025C161.141 184.025 149.697 180.215 138.634 184.025C127.572 187.454 126.046 189.74 126.046 189.74C126.046 189.74 113.076 185.93 111.551 176.023C110.406 166.498 166.863 91.0586 199.668 66.2931C232.092 41.5275 224.082 42.2896 193.183 65.15C162.285 88.0105 158.852 94.4877 144.356 100.965C129.861 107.442 128.716 87.6296 130.624 72.3892C132.531 57.1489 134.438 21.3341 132.531 17.143C130.624 13.333 126.046 63.245 120.324 85.3435C114.984 107.061 100.87 143.257 100.87 143.257Z" fill="url(#paint3_radial)"/>
<path d="M73.4048 217.553C71.4975 217.934 61.198 218.696 50.8986 215.648C37.166 211.838 31.0627 204.218 32.5885 192.788C34.1143 179.834 39.8363 176.023 66.92 171.07C92.8594 166.117 100.489 143.257 100.489 143.257C100.489 142.876 114.603 106.68 119.943 84.9625C122.995 73.9133 125.665 55.2438 127.572 40.3845C130.624 19.048 131.387 16.381 132.531 16C132.531 16 133.294 16 133.294 16.762C135.202 20.9531 133.294 57.9109 131.387 72.3892C130.624 77.7233 128.717 95.2497 135.583 100.203C137.872 101.727 140.542 101.727 144.357 100.203C152.749 96.3928 157.708 92.5826 166.481 85.3435C172.585 80.3904 180.595 73.9132 193.184 64.388C200.813 58.6729 207.679 54.1008 212.638 50.6718C220.267 46.0997 220.649 46.4806 221.03 47.2427C221.412 48.0047 222.556 49.1477 200.05 66.2931C167.626 91.0586 111.169 166.117 112.314 175.261C113.458 183.644 123.758 187.454 126.046 188.216C126.809 187.454 129.861 185.549 138.635 182.501C148.553 179.453 158.471 181.739 161.141 182.501C161.904 181.358 163.811 179.072 168.77 177.166C174.492 174.88 184.791 176.404 186.699 176.404C187.843 175.261 192.802 170.689 212.638 168.403C225.608 166.498 239.34 166.879 240.866 171.451C241.629 174.118 237.815 177.547 229.041 181.739C220.267 185.93 207.298 192.788 193.184 200.408C169.533 212.981 143.212 227.46 125.665 233.937C121.087 235.461 116.891 236.223 112.695 236.223C91.3335 236.604 75.3121 219.839 73.4048 217.553ZM212.257 169.927C190.513 172.975 187.08 177.928 187.08 177.928L186.699 178.31H186.317C186.317 178.31 174.492 176.404 168.77 178.69C163.048 180.977 161.522 184.025 161.522 184.025L161.141 184.406H160.759C160.759 184.406 149.316 180.977 138.635 184.406C128.335 187.835 126.428 189.74 126.428 189.74L126.046 190.121H125.665C125.284 190.121 112.314 185.93 110.788 176.023C109.644 166.117 165.718 91.0586 198.906 65.5311C212.638 55.2438 217.979 50.2907 219.123 48.3857C216.453 49.1477 208.442 54.1008 193.184 65.5311C180.595 74.6753 172.585 81.5334 166.481 86.4865C157.708 93.7257 152.749 97.5357 144.357 101.346C140.16 103.251 137.109 102.87 134.439 100.965C127.572 95.6307 129.098 78.8663 129.861 72.0082C131.768 57.9109 133.294 25.5252 132.15 18.2861C131.387 21.7151 129.861 31.2403 128.335 40.3845C126.047 55.2438 123.376 73.9133 120.706 84.9625C114.984 106.68 101.252 142.495 101.252 143.257C100.87 144.019 93.2408 167.26 66.5385 172.213C40.2177 177.166 34.8772 180.215 33.3513 192.788C31.8255 203.837 37.5474 210.695 50.8986 214.505C62.3424 217.553 73.4048 216.41 73.4048 216.41H73.7863L74.1677 216.791C74.5492 217.172 97.4368 243.462 124.902 233.175C142.449 226.698 169.152 212.219 192.421 199.646C206.153 192.026 219.123 185.168 228.278 180.977C238.959 176.023 239.722 173.356 239.34 172.213C238.959 170.308 234 169.165 225.608 169.165C221.793 168.784 217.216 169.165 212.257 169.927Z" fill="url(#paint4_linear)"/>
<path d="M74.9304 205.742C74.9304 205.742 75.3118 206.504 75.6933 208.028C76.4562 209.552 77.2192 211.457 78.745 213.743C81.7967 218.315 87.1371 224.03 94.7663 227.84C98.581 229.745 102.777 230.889 106.21 231.651C110.025 232.413 113.458 232.413 116.128 232.032C118.798 231.65 121.087 231.269 122.613 230.888C123.376 230.888 124.139 230.507 124.52 230.507C124.902 230.507 125.283 230.507 125.283 230.507C125.283 230.507 124.52 230.507 122.994 230.888C121.469 231.269 119.18 231.269 116.51 231.269C111.169 231.269 103.159 230.126 95.9108 226.697C88.663 223.268 82.941 217.934 79.5079 213.743C77.982 211.457 76.4562 209.933 75.6933 208.409C75.3118 206.504 74.9304 205.742 74.9304 205.742Z" fill="url(#paint5_linear)"/>
<path d="M174.492 198.884C174.492 198.884 174.873 198.503 175.255 197.36C175.636 196.979 176.018 196.217 176.399 195.836C176.781 195.074 177.162 194.312 177.925 193.55C180.214 190.502 184.029 186.311 188.988 182.882C191.276 180.977 193.947 179.833 196.235 178.69C198.524 177.547 200.813 176.785 202.72 176.023C203.865 175.642 204.627 175.642 205.39 175.261C206.153 174.88 206.916 174.88 207.298 174.88C208.442 174.499 209.205 174.499 209.205 174.499C209.205 174.499 208.442 174.499 207.298 174.499C206.535 174.499 206.153 174.499 205.39 174.499C204.627 174.499 203.483 174.88 202.72 174.88C200.813 175.261 198.524 176.023 195.854 176.785C193.184 177.928 190.513 179.071 188.225 180.977C185.554 182.882 183.647 184.787 181.74 186.692C180.977 187.835 180.214 188.597 179.451 189.74C178.688 190.502 178.307 191.645 177.544 192.407C177.162 193.169 176.781 193.931 176.399 194.693C176.018 195.455 175.636 195.836 175.636 196.598C174.492 198.122 174.492 198.884 174.492 198.884Z" fill="url(#paint6_linear)"/>
<path d="M151.223 207.266C151.223 207.266 151.604 206.885 151.986 205.742C151.986 205.361 152.367 204.599 152.749 203.837C153.13 203.075 153.512 202.313 153.893 201.551C155.8 198.122 158.852 193.931 163.43 189.74C165.718 187.835 168.007 186.311 170.296 184.787C171.44 184.025 172.585 183.644 173.729 183.263C174.111 182.882 174.873 182.882 175.255 182.501C175.636 182.501 176.399 182.12 176.781 182.12C177.544 181.739 178.688 181.358 179.451 181.358C180.214 180.977 180.977 180.977 181.358 180.977C182.503 180.596 183.266 180.596 183.266 180.596C183.266 180.596 182.503 180.596 181.358 180.596C180.977 180.596 180.214 180.596 179.451 180.977C178.688 180.977 177.925 181.358 176.781 181.358C176.399 181.358 175.636 181.739 175.255 181.739C174.873 181.739 174.111 182.12 173.729 182.12C172.585 182.501 171.44 182.882 170.296 183.644C168.007 184.787 165.337 186.311 163.048 188.597C160.759 190.502 158.852 192.788 157.326 195.074C156.563 196.217 155.8 197.36 155.419 198.122C154.656 199.265 154.275 200.027 153.893 201.17C153.512 201.932 153.13 203.075 153.13 203.837C152.749 204.599 152.749 205.361 152.749 205.742C151.604 206.885 151.223 207.266 151.223 207.266Z" fill="url(#paint7_linear)"/>
<path d="M124.902 207.647C124.902 207.647 124.902 206.885 125.283 206.123C125.283 204.98 126.046 203.456 126.809 201.932C128.335 198.503 131.768 194.312 136.727 191.645C141.686 188.597 147.027 187.454 150.841 187.073C152.749 186.692 154.274 186.692 155.419 186.311C156.563 186.311 157.326 186.311 157.326 186.311C157.326 186.311 156.563 186.311 155.8 186.311C154.656 186.311 153.13 186.311 151.223 186.311C147.408 186.692 141.686 187.454 136.346 190.121C131.005 193.169 127.572 198.122 126.428 201.551C125.665 203.456 125.665 204.98 125.665 206.123C125.665 206.504 125.665 206.885 125.665 207.266C124.902 207.266 124.902 207.647 124.902 207.647Z" fill="url(#paint8_linear)"/>
<path d="M187.08 200.027C187.08 200.027 196.998 194.693 209.587 187.835C222.175 180.977 232.474 175.261 232.474 175.261C232.474 175.261 229.804 176.405 225.226 178.31C221.03 180.215 214.927 182.882 208.824 186.311C202.72 189.74 196.998 193.169 193.184 195.836C189.369 198.122 187.08 200.027 187.08 200.027Z" fill="url(#paint9_linear)"/>
<path d="M73.4045 174.88C73.4045 174.88 73.786 174.88 74.1675 174.88C74.549 174.88 74.9304 174.88 75.6933 174.499C77.2192 174.118 79.1265 173.737 81.7967 172.594C86.7557 170.689 92.8591 166.117 97.4367 159.259C102.014 152.401 104.684 145.162 106.592 140.209C107.355 137.542 108.118 135.637 108.499 134.112C108.881 132.588 109.262 131.826 109.262 131.826C109.262 131.826 108.118 134.875 105.829 139.828C103.54 144.781 100.87 151.639 96.2922 158.116C91.7147 164.593 85.9928 169.546 81.4153 171.832C79.1265 172.975 77.2192 173.737 75.6933 174.118C74.9304 174.499 74.549 174.499 74.1675 174.499C73.4046 174.88 73.4045 174.88 73.4045 174.88Z" fill="url(#paint10_linear)"/>
<path d="M54.7131 152.02C54.7131 152.02 55.0947 152.02 55.8576 152.02C56.6205 152.02 57.3834 152.02 58.5278 151.639C59.6721 151.258 60.8165 150.877 62.3424 149.734C63.4868 148.591 64.6312 147.448 65.3941 145.543C66.1571 143.638 66.157 141.733 65.7755 140.209C65.3941 138.685 64.6311 137.161 63.8682 136.399C63.1053 135.637 62.3424 134.875 61.9609 134.494C61.5794 134.113 61.198 134.113 61.198 134.113C61.198 134.113 61.5794 134.494 61.9609 134.875C62.3424 135.256 63.1054 136.018 63.4868 137.161C64.6312 139.066 65.3941 142.114 64.2497 145.162C63.1053 148.21 60.8166 150.115 58.9092 150.877C57.7649 151.258 57.0019 151.639 56.6204 151.639C55.0946 152.02 54.7131 152.02 54.7131 152.02Z" fill="url(#paint11_linear)"/>
<path d="M64.6313 164.212C64.6313 164.212 65.0129 164.212 65.3943 164.212C65.7758 164.212 66.5386 164.212 67.683 164.212C68.4459 164.212 69.9719 164.212 71.1163 163.45C72.2607 163.069 73.7865 162.307 74.5494 160.783C75.3124 159.259 75.6938 157.735 75.3123 156.211C74.9308 154.687 74.1679 153.544 73.7865 152.782C73.0235 152.02 72.6421 151.639 71.8791 151.258C71.4977 150.877 71.1163 150.877 71.1163 150.877C71.1163 150.877 71.4976 151.258 71.4976 151.639C71.8791 152.02 72.2606 152.782 72.6421 153.544C73.0236 154.306 73.405 155.449 73.405 156.592C73.405 157.735 73.405 158.878 72.6421 160.021C71.8792 161.164 71.1162 161.926 69.9718 162.307C68.8274 162.688 68.0645 163.069 66.9202 163.45C65.7758 163.831 64.6313 164.212 64.6313 164.212Z" fill="url(#paint12_linear)"/>
<path d="M42.5065 165.355C42.5065 165.355 41.7435 162.688 40.5992 158.878C39.4548 154.687 37.5474 148.972 36.7845 142.495C36.0216 136.018 36.7844 129.921 37.9288 125.73C38.6918 123.825 39.4547 121.92 39.8362 120.777C40.2176 120.396 40.2177 120.015 40.5992 119.634C40.5992 119.253 40.9805 119.253 40.9805 119.253C40.9805 119.253 40.5991 119.634 39.8362 120.777C39.0732 121.92 38.3103 123.444 37.1659 125.349C35.2585 129.54 34.1142 135.636 34.8772 142.495C35.6401 149.353 37.9288 155.068 39.4547 158.878C41.362 163.069 42.5065 165.355 42.5065 165.355Z" fill="url(#paint13_linear)"/>
<path d="M93.2407 203.075C93.2407 203.075 93.6222 202.694 94.0037 202.313C94.7666 201.551 95.5295 200.789 96.6739 199.646C98.9626 197.741 102.014 194.693 105.829 192.788C110.025 190.883 114.221 190.121 116.891 190.502C118.417 190.502 119.562 190.883 120.324 191.264C121.087 191.645 121.469 191.645 121.469 191.645C121.469 191.645 121.087 191.264 120.324 190.883C119.562 190.502 118.417 189.74 116.891 189.74C113.84 188.978 109.262 188.978 104.685 191.264C100.488 193.55 97.4368 196.598 95.5295 198.884C94.7666 200.027 94.0036 201.17 93.2407 201.932C93.2407 202.694 93.2407 203.075 93.2407 203.075Z" fill="url(#paint14_linear)"/>
<path d="M39.0731 203.075C38.6916 202.694 38.6917 202.313 38.3102 201.932C37.9287 201.17 37.1658 199.646 37.1658 198.122C36.7843 196.598 36.7843 194.312 37.5472 192.407C37.9287 190.121 39.0731 188.216 40.9804 185.93C44.4135 181.739 48.9911 179.834 52.4242 179.072C54.3315 178.691 55.4759 178.31 56.6203 177.929C57.7647 177.929 58.1461 177.548 58.1461 177.548C58.1461 177.548 57.7647 177.548 56.6203 177.548C55.4759 177.548 53.9501 177.548 52.4242 177.929C50.5169 178.31 48.6097 178.691 46.3209 179.834C44.0322 180.977 41.7433 182.501 39.836 184.406C37.9287 186.692 36.7844 188.978 36.4029 191.645C36.0214 193.931 36.0215 196.217 36.7844 198.122C37.1658 200.027 37.9288 201.17 38.6917 201.932C38.3102 202.313 38.6916 202.694 39.0731 203.075Z" fill="url(#paint15_linear)"/>
<path d="M48.2283 103.251C48.2283 103.251 48.6097 102.87 49.3726 102.108C50.1355 101.346 51.2799 100.203 52.8057 98.6787C55.476 95.6307 58.9091 91.0586 61.9608 84.9625C63.4866 81.9144 64.6311 79.2473 65.394 76.5802C66.157 73.9132 66.9199 71.2462 67.3013 69.3411C67.6828 68.1981 67.6827 67.4361 67.6827 66.293C67.6827 65.531 68.0642 64.769 68.0642 64.007C68.0642 62.864 68.4457 62.102 68.4457 62.102C68.4457 62.102 68.4457 62.864 68.0642 64.007C67.6827 65.1501 67.3013 66.674 66.5384 68.9601C65.7755 70.8651 65.0125 73.1512 64.2496 75.8182C63.1052 78.4853 61.9608 81.1524 60.435 83.8194C57.7647 89.5346 54.7131 94.4876 52.0429 97.5357C50.8985 99.0597 49.754 100.584 48.9911 101.346C48.6097 102.87 48.2283 103.251 48.2283 103.251Z" fill="url(#paint16_linear)"/>
<path d="M168.77 208.028C168.77 208.028 169.533 207.266 170.677 205.742C171.822 204.218 173.729 202.313 175.636 200.027C177.544 198.122 179.832 196.598 181.74 195.836C182.503 195.455 183.266 195.074 184.028 195.074C184.41 195.074 184.791 195.074 184.791 195.074C184.791 195.074 184.41 195.074 184.028 195.074C183.647 195.074 182.503 195.074 181.74 195.074C179.832 195.455 176.781 196.598 174.492 198.884C172.203 201.17 170.677 203.456 169.914 205.361C169.152 206.885 168.77 208.028 168.77 208.028Z" fill="url(#paint17_linear)"/>
<path d="M145.501 217.553C145.501 217.553 146.264 216.41 147.408 214.886C148.553 212.981 150.46 210.695 152.367 208.028C153.512 206.885 154.274 205.361 155.419 204.599C156.563 203.456 157.326 203.075 158.471 202.313C159.615 201.932 160.378 201.551 160.759 201.551C161.522 201.551 161.522 201.551 161.522 201.551C161.522 201.551 161.141 201.551 160.759 201.17C159.996 201.17 159.233 201.17 158.089 201.17C156.945 201.551 155.8 201.932 154.656 203.075C153.512 203.837 152.367 205.361 151.223 206.504C149.316 209.171 147.79 211.838 147.027 214.124C146.264 216.029 145.501 217.553 145.501 217.553Z" fill="url(#paint18_linear)"/>
<path d="M120.324 217.934C120.324 217.934 121.087 216.791 122.232 214.505C123.376 212.6 124.902 209.933 127.191 207.266C129.48 204.599 132.15 203.075 134.439 201.932C135.583 201.551 136.346 201.17 137.109 201.17C137.872 201.17 138.253 201.17 138.253 201.17C138.253 201.17 137.872 201.17 137.109 201.17C136.346 201.17 135.583 201.17 134.439 201.17C132.15 201.551 128.717 203.075 126.428 206.123C124.139 208.79 122.613 212.219 121.85 214.124C120.706 216.791 120.324 217.934 120.324 217.934Z" fill="url(#paint19_linear)"/>
<path d="M87.5188 208.79C87.5188 208.79 87.9003 208.409 87.9003 208.028C88.2817 207.647 88.6632 206.885 89.4261 206.504C90.9519 204.98 92.8593 203.456 95.5295 202.313C96.6739 201.551 98.1997 201.17 99.3441 200.789C100.488 200.408 101.633 200.027 102.777 200.027C103.922 200.027 104.685 200.027 105.066 200.027C105.447 200.027 105.829 200.027 105.829 200.027C105.829 200.027 105.447 200.027 105.066 199.646C104.685 199.646 103.54 199.265 102.777 199.265C101.633 199.265 100.488 199.265 98.9626 199.265C97.4368 199.646 96.2924 200.027 94.7665 200.789C91.7148 202.313 89.8075 204.218 88.6631 206.123C88.2817 206.885 87.9003 207.647 87.5188 208.028C87.5188 208.79 87.5188 208.79 87.5188 208.79Z" fill="url(#paint20_linear)"/>
<path d="M52.8059 166.498C52.8059 166.498 53.1874 166.498 53.5689 166.879C53.9503 166.879 54.7133 167.26 55.4762 167.26C57.002 167.641 59.2907 167.641 61.9609 166.879C64.2497 166.117 66.157 164.212 66.9199 162.688C67.3014 161.926 67.6828 161.545 68.0643 160.783C68.0643 160.402 68.4458 160.021 68.4458 160.021C68.4458 160.021 68.4457 160.402 68.0643 160.402C67.6828 160.783 67.3014 161.164 66.5385 161.545C65.3941 162.688 63.4868 163.831 61.5795 164.593C59.6722 165.355 57.3835 165.736 55.8577 165.736C55.0947 165.736 54.3318 165.736 53.9504 165.736C53.1874 166.498 52.8059 166.498 52.8059 166.498Z" fill="url(#paint21_linear)"/>
<path d="M46.7024 159.64C46.7024 159.64 47.0839 159.64 47.4654 159.64C47.8468 159.64 48.6098 159.259 49.3727 159.259C50.8985 158.497 53.1873 157.354 54.7131 155.068C56.239 152.782 57.0019 150.115 57.0019 148.591C57.0019 147.829 57.0019 147.067 57.0019 146.305C57.0019 145.924 57.0019 145.543 57.0019 145.543C57.0019 145.543 57.0019 145.924 57.0019 146.305C57.0019 146.686 56.6205 147.448 56.6205 148.21C56.239 149.734 55.4761 152.02 53.9503 153.925C52.4244 155.83 50.8986 157.354 49.7542 158.497C48.9912 158.878 48.6098 159.259 48.2283 159.64C47.0839 159.259 46.7024 159.64 46.7024 159.64Z" fill="url(#paint22_linear)"/>
<path d="M107.736 175.261V175.642C107.736 176.023 107.736 176.405 107.736 177.167C107.736 178.31 108.118 180.215 109.262 182.12C110.407 184.025 111.932 185.168 113.077 185.549C113.84 185.93 114.221 185.93 114.603 186.311C114.984 186.311 114.984 186.311 114.984 186.311C114.984 186.311 114.984 186.311 114.603 185.93C114.221 185.549 113.84 185.168 113.458 184.787C112.695 184.025 111.551 182.501 110.788 180.977C110.025 179.453 109.262 177.929 108.881 176.785C108.499 176.404 108.499 175.642 108.499 175.261C107.736 175.261 107.736 175.261 107.736 175.261Z" fill="url(#paint23_linear)"/>
<path d="M113.458 163.069C113.458 163.069 115.365 160.021 118.799 155.449C122.232 150.496 126.809 144.019 132.15 136.78C137.49 129.54 142.449 123.063 146.264 118.11C150.078 113.538 152.367 110.49 152.367 110.49C152.367 110.49 149.697 113.157 145.501 117.729C141.305 122.301 135.964 128.397 130.624 136.018C125.283 143.257 120.706 150.115 118.036 155.449C114.984 159.64 113.458 163.069 113.458 163.069Z" fill="url(#paint24_linear)"/>
<path d="M127.191 95.2497C127.191 95.2497 127.191 95.6307 127.191 96.0117C127.191 96.7737 127.572 97.5357 127.954 98.2977C128.717 100.203 130.624 102.87 133.676 104.394C136.728 105.918 140.161 105.537 142.068 105.156C143.212 104.775 143.975 104.394 144.357 104.013C144.738 103.632 145.12 103.632 145.12 103.632C145.12 103.632 144.738 103.632 144.357 104.013C143.975 104.394 142.831 104.394 142.068 104.775C140.161 105.156 137.109 105.156 134.057 104.013C131.387 102.489 129.48 100.203 128.335 98.2977C127.954 97.5357 127.572 96.3927 127.572 96.0117C127.572 95.2497 127.191 95.2497 127.191 95.2497Z" fill="url(#paint25_linear)"/>
<path d="M168.389 89.1535C168.389 89.1535 169.533 88.0104 171.44 86.1054C173.348 84.2003 176.018 81.9143 179.07 79.2473C182.121 76.5802 184.791 74.2941 187.08 72.3891C189.369 70.8651 190.513 69.722 190.513 69.722C190.513 69.722 188.988 70.484 186.699 72.0081C184.41 73.5321 181.358 75.8181 178.307 78.4852C175.255 81.1523 172.585 83.8194 171.059 85.7244C169.533 88.0105 168.389 89.1535 168.389 89.1535Z" fill="url(#paint26_linear)"/>
<path d="M126.809 66.6741C126.809 66.6741 127.953 60.959 128.716 54.1008C129.861 46.8616 130.242 40.7655 130.242 40.7655C130.242 40.7655 129.098 46.4806 127.954 53.7198C126.809 60.959 126.809 66.6741 126.809 66.6741Z" fill="url(#paint27_linear)"/>
<path d="M57.3835 130.683C57.3835 130.683 57.3834 130.302 57.002 129.159C57.002 128.016 56.6205 126.873 56.6205 124.968C56.239 121.539 56.6205 116.586 58.1463 110.871C59.2907 105.537 61.1981 100.584 62.7239 97.1547C64.2498 93.7256 65.0127 91.4396 65.0127 91.4396C65.0127 91.4396 63.8683 93.3446 62.3425 96.7737C60.8166 100.203 58.5279 104.775 57.3835 110.109C55.8576 115.443 55.8575 120.777 56.239 124.206C56.6205 126.111 56.6205 127.635 57.002 128.397C57.3834 129.921 57.3835 130.683 57.3835 130.683Z" fill="url(#paint28_linear)"/>
<path d="M47.4652 198.122C47.4652 198.122 47.0837 197.741 47.0837 197.36C46.7023 196.979 46.3209 196.598 46.3209 195.836C45.9394 195.455 45.9394 194.693 45.9394 194.312C45.9394 193.931 45.9394 193.55 45.9394 193.55C45.9394 193.55 45.5579 193.55 45.1764 194.312C44.795 194.693 44.4135 195.836 44.795 196.598C45.1764 197.741 45.9393 198.122 46.7022 198.122C47.0837 198.122 47.4652 198.122 47.4652 198.122Z" fill="url(#paint29_linear)"/>
<path d="M50.8984 204.98C50.8984 204.98 50.517 204.98 50.8984 204.98C50.517 204.599 50.5171 204.218 50.1356 203.837C49.7541 203.456 49.3726 203.075 48.6096 203.075C47.8467 203.075 47.0839 203.075 46.321 203.456C45.558 203.837 45.1765 204.98 45.1765 206.123C45.1765 207.266 45.9394 208.028 46.7023 208.79C47.4653 209.552 48.6097 209.933 49.3726 210.695C50.517 211.076 51.2799 211.838 52.4243 212.219C56.6203 213.743 61.1979 214.124 64.2496 214.124C65.7755 214.124 66.9198 213.743 67.6827 213.743C68.4457 213.743 68.8272 213.362 68.8272 213.362C68.8272 213.362 68.4457 213.362 67.6827 213.362C66.9198 213.362 65.7755 213.362 64.2496 213.362C61.1979 212.981 57.3833 212.6 53.1872 210.695C52.0429 210.314 51.28 209.933 50.1356 209.552C49.3727 209.171 48.2282 208.79 47.4653 208.028C46.7024 207.647 46.3209 206.885 45.9395 206.123C45.9395 205.361 45.9395 204.599 46.321 204.218C46.7024 203.837 47.4653 203.456 47.8468 203.837C48.2283 203.837 48.9912 204.218 49.3726 204.218C50.1355 204.599 50.517 204.599 50.8984 204.98C50.517 204.98 50.8984 204.98 50.8984 204.98Z" fill="url(#paint30_linear)"/>
</g>
<defs>
<filter id="filter0_d" x="0" y="0" width="260.961" height="260.271" filterUnits="userSpaceOnUse" color-interpolation-filters="sRGB">
<feFlood flood-opacity="0" result="BackgroundImageFix"/>
<feColorMatrix in="SourceAlpha" type="matrix" values="0 0 0 0 0 0 0 0 0 0 0 0 0 0 0 0 0 0 127 0"/>
<feOffset dy="4"/>
<feGaussianBlur stdDeviation="10"/>
<feColorMatrix type="matrix" values="0 0 0 0 0 0 0 0 0 0 0 0 0 0 0 0 0 0 0.25 0"/>
<feBlend mode="normal" in2="BackgroundImageFix" result="effect1_dropShadow"/>
<feBlend mode="normal" in="SourceGraphic" in2="effect1_dropShadow" result="shape"/>
</filter>
<radialGradient id="paint0_radial" cx="0" cy="0" r="1" gradientUnits="userSpaceOnUse" gradientTransform="translate(65.9423 115.378) rotate(180) scale(55.0971 55.0316)">
<stop offset="0.1507" stop-color="#B22241"/>
<stop offset="0.9192" stop-color="#6B0D18"/>
</radialGradient>
<linearGradient id="paint1_linear" x1="77.0767" y1="43.8234" x2="56.9478" y2="239.646" gradientUnits="userSpaceOnUse">
<stop offset="0.00218341" stop-color="#EFCA9A"/>
<stop offset="0.4607" stop-color="#8C6128"/>
<stop offset="0.5586" stop-color="#946930"/>
<stop offset="0.7131" stop-color="#AB7E44"/>
<stop offset="0.9037" stop-color="#D0A066"/>
<stop offset="0.9651" stop-color="#DDAC72"/>
</linearGradient>
<linearGradient id="paint2_linear" x1="48.0515" y1="40.8376" x2="27.9225" y2="236.664" gradientUnits="userSpaceOnUse">
<stop offset="0.00218341" stop-color="#EFCA9A"/>
<stop offset="0.4607" stop-color="#8C6128"/>
<stop offset="0.5586" stop-color="#946930"/>
<stop offset="0.7131" stop-color="#AB7E44"/>
<stop offset="0.9037" stop-color="#D0A066"/>
<stop offset="0.9651" stop-color="#DDAC72"/>
</linearGradient>
<radialGradient id="paint3_radial" cx="0" cy="0" r="1" gradientUnits="userSpaceOnUse" gradientTransform="translate(56.4604 201.1) rotate(180) scale(144.575 144.404)">
<stop offset="0.1507" stop-color="#B22241"/>
<stop offset="0.9192" stop-color="#6B0D18"/>
</radialGradient>
<linearGradient id="paint4_linear" x1="149.961" y1="51.3153" x2="129.833" y2="247.139" gradientUnits="userSpaceOnUse">
<stop offset="0.00218341" stop-color="#EFCA9A"/>
<stop offset="0.4607" stop-color="#8C6128"/>
<stop offset="0.5586" stop-color="#946930"/>
<stop offset="0.7131" stop-color="#AB7E44"/>
<stop offset="0.9037" stop-color="#D0A066"/>
<stop offset="0.9651" stop-color="#DDAC72"/>
</linearGradient>
<linearGradient id="paint5_linear" x1="117.74" y1="48.0011" x2="97.6111" y2="243.827" gradientUnits="userSpaceOnUse">
<stop offset="0.00218341" stop-color="#EFCA9A"/>
<stop offset="0.4607" stop-color="#8C6128"/>
<stop offset="0.5586" stop-color="#946930"/>
<stop offset="0.7131" stop-color="#AB7E44"/>
<stop offset="0.9037" stop-color="#D0A066"/>
<stop offset="0.9651" stop-color="#DDAC72"/>
</linearGradient>
<linearGradient id="paint6_linear" x1="205.042" y1="56.9756" x2="184.913" y2="252.801" gradientUnits="userSpaceOnUse">
<stop offset="0.00218341" stop-color="#EFCA9A"/>
<stop offset="0.4607" stop-color="#8C6128"/>
<stop offset="0.5586" stop-color="#946930"/>
<stop offset="0.7131" stop-color="#AB7E44"/>
<stop offset="0.9037" stop-color="#D0A066"/>
<stop offset="0.9651" stop-color="#DDAC72"/>
</linearGradient>
<linearGradient id="paint7_linear" x1="181.462" y1="54.5528" x2="161.333" y2="250.377" gradientUnits="userSpaceOnUse">
<stop offset="0.00218341" stop-color="#EFCA9A"/>
<stop offset="0.4607" stop-color="#8C6128"/>
<stop offset="0.5586" stop-color="#946930"/>
<stop offset="0.7131" stop-color="#AB7E44"/>
<stop offset="0.9037" stop-color="#D0A066"/>
<stop offset="0.9651" stop-color="#DDAC72"/>
</linearGradient>
<linearGradient id="paint8_linear" x1="155.632" y1="51.898" x2="135.503" y2="247.722" gradientUnits="userSpaceOnUse">
<stop offset="0.00218341" stop-color="#EFCA9A"/>
<stop offset="0.4607" stop-color="#8C6128"/>
<stop offset="0.5586" stop-color="#946930"/>
<stop offset="0.7131" stop-color="#AB7E44"/>
<stop offset="0.9037" stop-color="#D0A066"/>
<stop offset="0.9651" stop-color="#DDAC72"/>
</linearGradient>
<linearGradient id="paint9_linear" x1="222.961" y1="58.8186" x2="202.832" y2="254.643" gradientUnits="userSpaceOnUse">
<stop offset="0.00218341" stop-color="#EFCA9A"/>
<stop offset="0.4607" stop-color="#8C6128"/>
<stop offset="0.5586" stop-color="#946930"/>
<stop offset="0.7131" stop-color="#AB7E44"/>
<stop offset="0.9037" stop-color="#D0A066"/>
<stop offset="0.9651" stop-color="#DDAC72"/>
</linearGradient>
<linearGradient id="paint10_linear" x1="102.17" y1="46.4015" x2="82.041" y2="242.227" gradientUnits="userSpaceOnUse">
<stop offset="0.00218341" stop-color="#EFCA9A"/>
<stop offset="0.4607" stop-color="#8C6128"/>
<stop offset="0.5586" stop-color="#946930"/>
<stop offset="0.7131" stop-color="#AB7E44"/>
<stop offset="0.9037" stop-color="#D0A066"/>
<stop offset="0.9651" stop-color="#DDAC72"/>
</linearGradient>
<linearGradient id="paint11_linear" x1="70.9371" y1="43.1912" x2="50.8079" y2="239.018" gradientUnits="userSpaceOnUse">
<stop offset="0.00218341" stop-color="#EFCA9A"/>
<stop offset="0.4607" stop-color="#8C6128"/>
<stop offset="0.5586" stop-color="#946930"/>
<stop offset="0.7131" stop-color="#AB7E44"/>
<stop offset="0.9037" stop-color="#D0A066"/>
<stop offset="0.9651" stop-color="#DDAC72"/>
</linearGradient>
<linearGradient id="paint12_linear" x1="82.2324" y1="44.3532" x2="62.1037" y2="240.177" gradientUnits="userSpaceOnUse">
<stop offset="0.00218341" stop-color="#EFCA9A"/>
<stop offset="0.4607" stop-color="#8C6128"/>
<stop offset="0.5586" stop-color="#946930"/>
<stop offset="0.7131" stop-color="#AB7E44"/>
<stop offset="0.9037" stop-color="#D0A066"/>
<stop offset="0.9651" stop-color="#DDAC72"/>
</linearGradient>
<linearGradient id="paint13_linear" x1="49.9123" y1="41.0315" x2="29.7837" y2="236.855" gradientUnits="userSpaceOnUse">
<stop offset="0.00218341" stop-color="#EFCA9A"/>
<stop offset="0.4607" stop-color="#8C6128"/>
<stop offset="0.5586" stop-color="#946930"/>
<stop offset="0.7131" stop-color="#AB7E44"/>
<stop offset="0.9037" stop-color="#D0A066"/>
<stop offset="0.9651" stop-color="#DDAC72"/>
</linearGradient>
<linearGradient id="paint14_linear" x1="122.798" y1="48.5268" x2="102.669" y2="244.346" gradientUnits="userSpaceOnUse">
<stop offset="0.00218341" stop-color="#EFCA9A"/>
<stop offset="0.4607" stop-color="#8C6128"/>
<stop offset="0.5586" stop-color="#946930"/>
<stop offset="0.7131" stop-color="#AB7E44"/>
<stop offset="0.9037" stop-color="#D0A066"/>
<stop offset="0.9651" stop-color="#DDAC72"/>
</linearGradient>
<linearGradient id="paint15_linear" x1="61.6117" y1="42.2332" x2="41.4824" y2="238.057" gradientUnits="userSpaceOnUse">
<stop offset="0.00218341" stop-color="#EFCA9A"/>
<stop offset="0.4607" stop-color="#8C6128"/>
<stop offset="0.5586" stop-color="#946930"/>
<stop offset="0.7131" stop-color="#AB7E44"/>
<stop offset="0.9037" stop-color="#D0A066"/>
<stop offset="0.9651" stop-color="#DDAC72"/>
</linearGradient>
<linearGradient id="paint16_linear" x1="62.459" y1="42.3212" x2="42.3302" y2="238.143" gradientUnits="userSpaceOnUse">
<stop offset="0.00218341" stop-color="#EFCA9A"/>
<stop offset="0.4607" stop-color="#8C6128"/>
<stop offset="0.5586" stop-color="#946930"/>
<stop offset="0.7131" stop-color="#AB7E44"/>
<stop offset="0.9037" stop-color="#D0A066"/>
<stop offset="0.9651" stop-color="#DDAC72"/>
</linearGradient>
<linearGradient id="paint17_linear" x1="191.755" y1="55.6111" x2="171.627" y2="251.435" gradientUnits="userSpaceOnUse">
<stop offset="0.00218341" stop-color="#EFCA9A"/>
<stop offset="0.4607" stop-color="#8C6128"/>
<stop offset="0.5586" stop-color="#946930"/>
<stop offset="0.7131" stop-color="#AB7E44"/>
<stop offset="0.9037" stop-color="#D0A066"/>
<stop offset="0.9651" stop-color="#DDAC72"/>
</linearGradient>
<linearGradient id="paint18_linear" x1="169.804" y1="53.3529" x2="149.674" y2="249.18" gradientUnits="userSpaceOnUse">
<stop offset="0.00218341" stop-color="#EFCA9A"/>
<stop offset="0.4607" stop-color="#8C6128"/>
<stop offset="0.5586" stop-color="#946930"/>
<stop offset="0.7131" stop-color="#AB7E44"/>
<stop offset="0.9037" stop-color="#D0A066"/>
<stop offset="0.9651" stop-color="#DDAC72"/>
</linearGradient>
<linearGradient id="paint19_linear" x1="145.314" y1="50.8368" x2="125.185" y2="246.662" gradientUnits="userSpaceOnUse">
<stop offset="0.00218341" stop-color="#EFCA9A"/>
<stop offset="0.4607" stop-color="#8C6128"/>
<stop offset="0.5586" stop-color="#946930"/>
<stop offset="0.7131" stop-color="#AB7E44"/>
<stop offset="0.9037" stop-color="#D0A066"/>
<stop offset="0.9651" stop-color="#DDAC72"/>
</linearGradient>
<linearGradient id="paint20_linear" x1="112.868" y1="47.5052" x2="92.7398" y2="243.326" gradientUnits="userSpaceOnUse">
<stop offset="0.00218341" stop-color="#EFCA9A"/>
<stop offset="0.4607" stop-color="#8C6128"/>
<stop offset="0.5586" stop-color="#946930"/>
<stop offset="0.7131" stop-color="#AB7E44"/>
<stop offset="0.9037" stop-color="#D0A066"/>
<stop offset="0.9651" stop-color="#DDAC72"/>
</linearGradient>
<linearGradient id="paint21_linear" x1="72.7105" y1="43.3746" x2="52.5823" y2="239.197" gradientUnits="userSpaceOnUse">
<stop offset="0.00218341" stop-color="#EFCA9A"/>
<stop offset="0.4607" stop-color="#8C6128"/>
<stop offset="0.5586" stop-color="#946930"/>
<stop offset="0.7131" stop-color="#AB7E44"/>
<stop offset="0.9037" stop-color="#D0A066"/>
<stop offset="0.9651" stop-color="#DDAC72"/>
</linearGradient>
<linearGradient id="paint22_linear" x1="63.4231" y1="42.4197" x2="43.2944" y2="238.244" gradientUnits="userSpaceOnUse">
<stop offset="0.00218341" stop-color="#EFCA9A"/>
<stop offset="0.4607" stop-color="#8C6128"/>
<stop offset="0.5586" stop-color="#946930"/>
<stop offset="0.7131" stop-color="#AB7E44"/>
<stop offset="0.9037" stop-color="#D0A066"/>
<stop offset="0.9651" stop-color="#DDAC72"/>
</linearGradient>
<linearGradient id="paint23_linear" x1="124.694" y1="48.7169" x2="104.565" y2="244.543" gradientUnits="userSpaceOnUse">
<stop offset="0.00218341" stop-color="#EFCA9A"/>
<stop offset="0.4607" stop-color="#8C6128"/>
<stop offset="0.5586" stop-color="#946930"/>
<stop offset="0.7131" stop-color="#AB7E44"/>
<stop offset="0.9037" stop-color="#D0A066"/>
<stop offset="0.9651" stop-color="#DDAC72"/>
</linearGradient>
<linearGradient id="paint24_linear" x1="141.708" y1="50.466" x2="121.578" y2="246.292" gradientUnits="userSpaceOnUse">
<stop offset="0.00218341" stop-color="#EFCA9A"/>
<stop offset="0.4607" stop-color="#8C6128"/>
<stop offset="0.5586" stop-color="#946930"/>
<stop offset="0.7131" stop-color="#AB7E44"/>
<stop offset="0.9037" stop-color="#D0A066"/>
<stop offset="0.9651" stop-color="#DDAC72"/>
</linearGradient>
<linearGradient id="paint25_linear" x1="141.352" y1="50.432" x2="121.225" y2="246.249" gradientUnits="userSpaceOnUse">
<stop offset="0.00218341" stop-color="#EFCA9A"/>
<stop offset="0.4607" stop-color="#8C6128"/>
<stop offset="0.5586" stop-color="#946930"/>
<stop offset="0.7131" stop-color="#AB7E44"/>
<stop offset="0.9037" stop-color="#D0A066"/>
<stop offset="0.9651" stop-color="#DDAC72"/>
</linearGradient>
<linearGradient id="paint26_linear" x1="182.003" y1="54.6082" x2="161.874" y2="250.434" gradientUnits="userSpaceOnUse">
<stop offset="0.00218341" stop-color="#EFCA9A"/>
<stop offset="0.4607" stop-color="#8C6128"/>
<stop offset="0.5586" stop-color="#946930"/>
<stop offset="0.7131" stop-color="#AB7E44"/>
<stop offset="0.9037" stop-color="#D0A066"/>
<stop offset="0.9651" stop-color="#DDAC72"/>
</linearGradient>
<linearGradient id="paint27_linear" x1="128.874" y1="49.1477" x2="108.745" y2="244.97" gradientUnits="userSpaceOnUse">
<stop offset="0.00218341" stop-color="#EFCA9A"/>
<stop offset="0.4607" stop-color="#8C6128"/>
<stop offset="0.5586" stop-color="#946930"/>
<stop offset="0.7131" stop-color="#AB7E44"/>
<stop offset="0.9037" stop-color="#D0A066"/>
<stop offset="0.9651" stop-color="#DDAC72"/>
</linearGradient>
<linearGradient id="paint28_linear" x1="66.8918" y1="42.7762" x2="46.7633" y2="238.6" gradientUnits="userSpaceOnUse">
<stop offset="0.00218341" stop-color="#EFCA9A"/>
<stop offset="0.4607" stop-color="#8C6128"/>
<stop offset="0.5586" stop-color="#946930"/>
<stop offset="0.7131" stop-color="#AB7E44"/>
<stop offset="0.9037" stop-color="#D0A066"/>
<stop offset="0.9651" stop-color="#DDAC72"/>
</linearGradient>
<linearGradient id="paint29_linear" x1="61.9802" y1="42.2685" x2="41.8506" y2="238.096" gradientUnits="userSpaceOnUse">
<stop offset="0.00218341" stop-color="#EFCA9A"/>
<stop offset="0.4607" stop-color="#8C6128"/>
<stop offset="0.5586" stop-color="#946930"/>
<stop offset="0.7131" stop-color="#AB7E44"/>
<stop offset="0.9037" stop-color="#D0A066"/>
<stop offset="0.9651" stop-color="#DDAC72"/>
</linearGradient>
<linearGradient id="paint30_linear" x1="74.0597" y1="43.5109" x2="53.9308" y2="239.337" gradientUnits="userSpaceOnUse">
<stop offset="0.00218341" stop-color="#EFCA9A"/>
<stop offset="0.4607" stop-color="#8C6128"/>
<stop offset="0.5586" stop-color="#946930"/>
<stop offset="0.7131" stop-color="#AB7E44"/>
<stop offset="0.9037" stop-color="#D0A066"/>
<stop offset="0.9651" stop-color="#DDAC72"/>
</linearGradient>
</defs>
</svg>
