<svg width="210" height="210" viewBox="0 0 210 210" fill="none" xmlns="http://www.w3.org/2000/svg">
<g filter="url(#filter0_d)">
<path d="M127 126.225C127 126.225 139.025 130.033 143.131 123.296C146.944 116.558 150.757 115.972 150.757 115.972C150.757 115.972 149.291 112.164 152.81 108.062C156.33 103.961 157.21 103.668 157.21 103.668C157.21 103.668 162.489 95.7583 153.69 75.2517C144.891 54.7452 151.344 33.9457 151.637 40.0977C151.93 46.5426 157.796 67.635 168.062 80.5249C178.621 93.4147 183.313 105.133 179.794 119.194C176.274 133.256 163.956 145.853 163.956 145.853C163.956 145.853 157.503 145.56 146.944 142.044C136.092 139.115 127 126.225 127 126.225Z" fill="url(#paint0_linear)"/>
<path d="M164.083 146.07C163.789 146.07 157.337 145.777 146.485 142.262C135.633 138.746 126.834 126.442 126.541 125.856L125.661 124.685L127.127 125.271C127.127 125.271 138.859 129.079 142.672 122.634C145.898 117.361 148.831 115.603 150.004 115.31C149.711 114.138 149.125 110.916 152.351 107.401C155.284 104.178 156.164 103.299 156.75 103.006C157.337 102.127 161.15 94.2178 152.937 74.8831C145.605 57.892 148.538 40.3149 150.591 38.2643C150.884 37.9713 151.178 37.9713 151.471 37.9713C151.764 37.9713 152.057 38.5572 152.057 39.4361C152.351 45.2951 157.923 66.6805 168.482 79.5703C180.214 93.9248 183.734 105.643 180.507 118.826C176.695 133.18 164.376 145.777 164.083 146.07ZM128.3 126.442C130.94 129.665 138.566 138.453 147.071 141.383C156.457 144.312 162.616 144.898 163.789 145.191C165.256 143.726 176.108 132.008 179.334 119.119C182.56 106.229 179.041 94.8037 167.602 80.7421C157.044 67.5593 151.178 46.1739 150.884 40.022V39.729C149.418 42.6585 146.778 58.7708 153.817 74.8831C162.616 95.6826 157.63 103.592 157.337 103.885H157.044C157.044 103.885 156.164 104.178 152.937 107.986C149.418 111.795 150.884 115.31 150.884 115.31L151.178 115.896H150.591C150.591 115.896 147.071 116.482 143.259 122.927C140.326 128.786 131.82 127.321 128.3 126.442Z" fill="url(#paint1_linear)"/>
<path d="M177.281 155.151L187.84 162.475L173.469 162.768L177.281 155.151Z" fill="#6B0D18"/>
<path d="M172.588 163.061L176.988 154.273L189.306 162.768L172.588 163.061ZM177.281 155.737L174.055 162.182L186.373 161.889L177.281 155.737Z" fill="url(#paint2_linear)"/>
<path d="M126.698 113.125C126.698 113.125 132.271 131.288 153.095 135.097C173.626 138.905 178.026 141.542 179.199 151.502C180.372 161.462 174.213 166.149 165.414 168.493C156.615 170.837 147.816 169.958 147.816 169.958C147.816 169.958 129.925 190.757 108.221 182.848C86.5165 174.938 46.9212 151.209 28.7367 142.713C10.5522 134.218 23.7506 130.995 41.0552 133.339C58.6531 135.683 60.7063 139.784 60.7063 139.784C60.7063 139.784 69.7985 138.319 74.4913 140.077C79.1841 141.835 80.3573 144.471 80.3573 144.471C80.3573 144.471 89.1562 141.542 97.6619 144.471C106.168 147.108 107.341 148.865 107.341 148.865C107.341 148.865 117.313 145.936 118.486 138.319C119.366 130.995 75.9578 72.9912 50.7341 53.9494C25.8037 34.9076 31.963 35.4935 55.7202 53.0705C79.4774 70.6476 82.117 75.6277 93.2624 80.6078C104.408 85.588 105.288 70.3546 103.821 58.6366C102.355 46.9185 100.888 19.3812 102.355 16.1587C103.821 13.2292 107.341 51.6058 111.74 68.5969C115.846 85.2951 126.698 113.125 126.698 113.125Z" fill="url(#paint3_linear)"/>
<path d="M118.622 185.325C115.395 185.325 111.876 184.74 108.649 183.568C95.1576 178.588 74.6267 167.455 56.7355 157.788C46.1767 151.929 36.2046 146.656 29.1654 143.433C22.4195 140.211 19.4866 137.867 20.0732 135.524C21.2464 132.008 31.8051 131.715 41.7772 133.18C56.7355 135.231 60.8417 138.453 61.7216 139.332C63.4814 139.039 71.1071 137.867 75.5066 139.918C79.3195 141.383 80.786 143.141 81.3726 144.019C83.1324 143.433 91.0514 141.676 98.6772 144.019C105.423 146.07 107.769 147.828 108.356 148.414C109.823 147.828 118.035 144.898 118.915 138.453C119.795 131.13 76.3865 73.7112 51.4561 54.6695C34.1515 41.4867 35.0314 40.3149 35.3247 40.0219C35.618 39.729 35.9113 39.1431 41.7772 42.6585C45.5901 45.0021 50.8695 48.8105 56.7355 53.2047C66.4144 60.2355 72.5736 65.5086 77.2664 69.317C84.0123 74.883 87.5318 77.8126 94.2777 80.7421C96.9174 81.9139 99.2638 81.9139 101.024 80.7421C106.01 76.9337 104.543 63.458 104.25 59.3567C102.783 48.2246 101.317 20.1013 102.783 16.5859C103.077 16 103.37 16 103.37 16C104.25 16 104.836 18.3436 107.183 34.7488C108.943 46.1739 110.996 60.5285 113.049 69.0241C117.448 85.7222 128.007 113.553 128.007 113.845C128.007 114.138 133.873 131.715 153.817 135.231C174.642 139.039 179.041 141.969 180.214 151.929C181.387 161.01 176.695 166.577 166.136 169.506C158.217 171.557 150.298 170.971 148.831 170.971C146.778 172.436 134.46 185.325 118.622 185.325ZM31.2185 133.18C25.0592 133.18 21.2463 134.352 20.6597 135.524C20.3664 136.11 20.953 138.453 29.1654 142.262C35.9113 145.484 46.1767 150.757 56.7355 156.616C74.6267 166.284 95.1576 177.416 108.649 182.396C129.767 190.013 147.365 169.799 147.658 169.799L147.951 169.506H148.245C148.245 169.506 156.75 170.678 165.549 168.041C175.522 165.405 179.921 159.839 179.041 151.343C177.868 141.676 173.762 139.332 153.524 135.524C133.286 131.715 127.127 113.845 126.834 113.26C126.541 112.674 115.982 84.8434 111.876 68.4381C109.529 59.9426 107.476 45.588 106.01 34.1629C104.836 27.1321 103.957 19.5154 103.077 17.1718C102.197 22.7378 103.37 47.6387 104.836 58.4778C105.423 63.7509 106.596 76.6408 101.317 80.7421C99.2638 82.2068 96.9174 82.2068 93.6911 81.035C86.9453 78.1055 83.4257 75.176 76.6798 69.61C71.987 65.8016 65.8277 60.8214 56.1489 53.4977C44.4169 45.0021 38.2577 41.1938 36.2046 40.3149C37.3778 41.7797 41.1906 45.588 51.7494 53.4977C77.5597 73.1254 120.675 130.544 119.501 138.453C118.622 146.07 108.649 149.292 108.063 149.292H107.769L107.476 149C107.476 149 106.01 147.242 98.0906 144.898C89.8782 142.262 81.0793 144.898 81.0793 144.898H80.786L80.4927 144.605C80.4927 144.605 79.3195 142.555 74.92 140.504C70.2272 138.746 61.4283 140.211 61.4283 140.211H61.135L60.8417 139.918C60.8417 139.918 58.202 136.11 41.4839 133.766C37.671 133.473 34.1515 133.18 31.2185 133.18Z" fill="url(#paint4_linear)"/>
<path d="M147.071 161.596C147.071 161.596 146.778 162.182 146.485 163.354C145.898 164.526 145.312 165.991 144.138 167.748C141.792 171.264 137.686 175.658 131.82 178.588C128.887 180.052 125.661 180.931 123.021 181.517C120.088 182.103 117.448 182.103 115.395 181.81C113.342 181.517 111.582 181.224 110.409 180.931C109.823 180.931 109.236 180.638 108.943 180.638C108.649 180.638 108.356 180.638 108.356 180.638C108.356 180.638 108.943 180.638 110.116 180.931C111.289 181.224 113.049 181.224 115.102 181.224C119.208 181.224 125.367 180.345 130.94 177.709C136.513 175.072 140.912 170.971 143.552 167.748C144.725 165.991 145.898 164.819 146.485 163.647C146.778 161.889 147.071 161.596 147.071 161.596Z" fill="url(#paint5_linear)"/>
<path d="M70.5205 156.03C70.5205 156.03 70.2272 155.738 69.9339 154.859C69.6406 154.566 69.3473 153.98 69.054 153.687C68.7607 153.101 68.4674 152.515 67.8808 151.929C66.121 149.586 63.188 146.363 59.3752 143.727C57.6154 142.262 55.5623 141.383 53.8025 140.504C52.0427 139.625 50.2829 139.039 48.8164 138.453C47.9365 138.16 47.3499 138.161 46.7633 137.868C46.1767 137.575 45.5901 137.575 45.2968 137.575C44.4169 137.282 43.8303 137.282 43.8303 137.282C43.8303 137.282 44.4169 137.282 45.2968 137.282C45.8834 137.282 46.1767 137.282 46.7633 137.282C47.3499 137.282 48.2298 137.575 48.8164 137.575C50.2829 137.868 52.0427 138.453 54.0958 139.039C56.1489 139.918 58.202 140.797 59.9617 142.262C62.0148 143.727 63.4813 145.191 64.9478 146.656C65.5344 147.535 66.121 148.121 66.7076 149C67.2942 149.586 67.5875 150.464 68.1741 151.05C68.4674 151.636 68.7607 152.222 69.054 152.808C69.3473 153.394 69.6406 153.687 69.6406 154.273C70.5205 155.738 70.5205 156.03 70.5205 156.03Z" fill="url(#paint6_linear)"/>
<path d="M88.4117 162.768C88.4117 162.768 88.1185 162.475 87.8252 161.597C87.8252 161.304 87.5319 160.718 87.2386 160.132C86.9453 159.546 86.652 158.96 86.3587 158.374C84.8922 155.738 82.5458 152.515 79.0262 149.293C77.2664 147.828 75.5066 146.656 73.7468 145.484C72.8669 144.898 71.987 144.605 71.1071 144.312C70.8138 144.02 70.2273 144.02 69.934 143.727C69.6407 143.727 69.054 143.434 68.7607 143.434C68.1741 143.141 67.2942 142.848 66.7076 142.848C66.121 142.555 65.5345 142.555 65.2412 142.555C64.3613 142.262 63.7747 142.262 63.7747 142.262C63.7747 142.262 64.3613 142.262 65.2412 142.262C65.5345 142.262 66.121 142.262 66.7076 142.555C67.2942 142.555 67.8808 142.848 68.7607 142.848C69.054 142.848 69.6407 143.141 69.934 143.141C70.2273 143.141 70.8138 143.434 71.1071 143.434C71.987 143.727 72.8669 144.019 73.7468 144.605C75.5066 145.484 77.5597 146.656 79.3195 148.414C81.0793 149.878 82.5458 151.636 83.719 153.394C84.3056 154.273 84.8922 155.152 85.1855 155.737C85.7721 156.616 86.0654 157.202 86.3587 158.081C86.652 158.667 86.9452 159.546 86.9452 160.132C87.2385 160.718 87.2386 161.304 87.2386 161.597C88.1185 162.475 88.4117 162.768 88.4117 162.768Z" fill="url(#paint7_linear)"/>
<path d="M108.649 163.061C108.649 163.061 108.649 162.475 108.356 161.889C108.356 161.011 107.769 159.839 107.183 158.667C106.01 156.03 103.37 152.808 99.557 150.757C95.7441 148.414 91.6379 147.535 88.7049 147.242C87.2384 146.949 86.0653 146.949 85.1854 146.656C84.3055 146.656 83.7189 146.656 83.7189 146.656C83.7189 146.656 84.3055 146.656 84.892 146.656C85.7719 146.656 86.9451 146.656 88.4116 146.656C91.3446 146.949 95.7441 147.535 99.8503 149.586C103.956 151.929 106.596 155.737 107.476 158.374C108.063 159.839 108.063 161.011 108.063 161.889C108.063 162.182 108.063 162.475 108.063 162.768C108.649 162.768 108.649 163.061 108.649 163.061Z" fill="url(#paint8_linear)"/>
<path d="M60.8416 157.202C60.8416 157.202 53.2159 153.101 43.537 147.828C33.8582 142.555 25.9391 138.16 25.9391 138.16C25.9391 138.16 27.9922 139.039 31.5117 140.504C34.738 141.969 39.4308 144.019 44.1236 146.656C48.8164 149.293 53.2158 151.929 56.1488 153.98C59.0818 155.738 60.8416 157.202 60.8416 157.202Z" fill="url(#paint9_linear)"/>
<path d="M148.245 137.868C148.245 137.868 147.951 137.868 147.658 137.868C147.365 137.868 147.071 137.868 146.485 137.575C145.312 137.282 143.845 136.989 141.792 136.11C137.979 134.645 133.286 131.13 129.767 125.857C126.247 120.583 124.194 115.017 122.728 111.209C122.141 109.158 121.554 107.694 121.261 106.522C120.968 105.35 120.674 104.764 120.674 104.764C120.674 104.764 121.554 107.108 123.314 110.916C125.074 114.724 127.127 119.998 130.647 124.978C134.166 129.958 138.566 133.766 142.085 135.524C143.845 136.403 145.312 136.989 146.485 137.282C147.071 137.575 147.365 137.575 147.658 137.575C148.245 137.868 148.245 137.868 148.245 137.868Z" fill="url(#paint10_linear)"/>
<path d="M162.616 120.291C162.616 120.291 162.323 120.291 161.736 120.291C161.15 120.291 160.563 120.29 159.683 119.998C158.803 119.705 157.923 119.412 156.75 118.533C155.87 117.654 154.99 116.775 154.404 115.31C153.817 113.846 153.817 112.381 154.11 111.209C154.404 110.037 154.99 108.865 155.577 108.28C156.164 107.694 156.75 107.108 157.043 106.815C157.337 106.522 157.63 106.522 157.63 106.522C157.63 106.522 157.337 106.815 157.043 107.108C156.75 107.401 156.164 107.987 155.87 108.865C154.99 110.33 154.404 112.674 155.284 115.017C156.164 117.361 157.923 118.826 159.39 119.412C160.27 119.705 160.856 119.998 161.15 119.998C162.323 120.29 162.616 120.291 162.616 120.291Z" fill="url(#paint11_linear)"/>
<path d="M154.991 129.665C154.991 129.665 154.697 129.665 154.404 129.665C154.111 129.665 153.524 129.665 152.644 129.665C152.058 129.665 150.884 129.665 150.005 129.079C149.125 128.786 147.951 128.2 147.365 127.028C146.778 125.857 146.485 124.685 146.778 123.513C147.072 122.341 147.658 121.462 147.952 120.876C148.538 120.29 148.831 119.997 149.418 119.705C149.711 119.412 150.005 119.412 150.005 119.412C150.005 119.412 149.711 119.705 149.711 119.998C149.418 120.29 149.125 120.876 148.831 121.462C148.538 122.048 148.245 122.927 148.245 123.806C148.245 124.685 148.245 125.564 148.831 126.442C149.418 127.321 150.005 127.907 150.885 128.2C151.764 128.493 152.351 128.786 153.231 129.079C154.111 129.372 154.991 129.665 154.991 129.665Z" fill="url(#paint12_linear)"/>
<path d="M172.002 130.544C172.002 130.544 172.588 128.493 173.468 125.564C174.348 122.341 175.815 117.947 176.401 112.967C176.988 107.987 176.401 103.299 175.521 100.077C174.935 98.6121 174.348 97.1473 174.055 96.2685C173.762 95.9755 173.761 95.6826 173.468 95.3897C173.468 95.0967 173.175 95.0967 173.175 95.0967C173.175 95.0967 173.468 95.3896 174.055 96.2685C174.641 97.1473 175.228 98.3192 176.108 99.7839C177.574 103.006 178.454 107.694 177.868 112.967C177.281 118.24 175.521 122.634 174.348 125.564C172.882 128.786 172.002 130.544 172.002 130.544Z" fill="url(#paint13_linear)"/>
<path d="M132.993 159.546C132.993 159.546 132.7 159.253 132.407 158.96C131.82 158.374 131.233 157.788 130.354 156.909C128.594 155.445 126.247 153.101 123.314 151.636C120.088 150.171 116.862 149.586 114.809 149.879C113.635 149.879 112.756 150.171 112.169 150.464C111.582 150.757 111.289 150.757 111.289 150.757C111.289 150.757 111.582 150.464 112.169 150.171C112.756 149.879 113.635 149.586 114.809 149.293C117.155 148.707 120.675 148.707 124.194 150.464C127.421 152.222 129.767 154.566 131.233 156.323C131.82 157.202 132.407 158.081 132.993 158.667C132.993 159.253 132.993 159.546 132.993 159.546Z" fill="url(#paint14_linear)"/>
<path d="M174.641 159.546C174.935 159.253 174.935 158.96 175.228 158.667C175.521 158.081 176.108 156.909 176.108 155.738C176.401 154.566 176.401 152.808 175.815 151.343C175.521 149.586 174.641 148.121 173.175 146.363C170.535 143.141 167.016 141.676 164.376 141.09C162.909 140.797 162.03 140.504 161.15 140.211C160.27 140.211 159.976 139.918 159.976 139.918C159.976 139.918 160.27 139.918 161.15 139.918C162.03 139.918 163.203 139.918 164.376 140.211C165.842 140.504 167.309 140.797 169.069 141.676C170.829 142.555 172.588 143.727 174.055 145.191C175.521 146.949 176.401 148.707 176.694 150.757C176.988 152.515 176.988 154.273 176.401 155.738C176.108 157.202 175.521 158.081 174.935 158.667C175.228 158.96 174.935 159.253 174.641 159.546Z" fill="url(#paint15_linear)"/>
<path d="M167.602 82.7928C167.602 82.7928 167.309 82.4999 166.723 81.914C166.136 81.3281 165.256 80.4492 164.083 79.2774C162.03 76.9338 159.39 73.4184 157.044 68.7312C155.87 66.3876 154.991 64.337 154.404 62.2863C153.817 60.2356 153.231 58.185 152.937 56.7202C152.644 55.8414 152.644 55.2555 152.644 54.3766C152.644 53.7907 152.351 53.2048 152.351 52.6189C152.351 51.7401 152.058 51.1542 152.058 51.1542C152.058 51.1542 152.058 51.7401 152.351 52.6189C152.644 53.4978 152.938 54.6696 153.524 56.4273C154.111 57.892 154.697 59.6498 155.284 61.7004C156.164 63.7511 157.044 65.8017 158.217 67.8523C160.27 72.2466 162.616 76.055 164.669 78.3986C165.549 79.5704 166.429 80.7422 167.016 81.3281C167.309 82.4999 167.602 82.7928 167.602 82.7928Z" fill="url(#paint16_linear)"/>
<path d="M74.92 163.354C74.92 163.354 74.3334 162.768 73.4535 161.596C72.5736 160.425 71.1071 158.96 69.6406 157.202C68.1741 155.737 66.4143 154.566 64.9478 153.98C64.3612 153.687 63.7746 153.394 63.188 153.394C62.8947 153.394 62.6014 153.394 62.6014 153.394C62.6014 153.394 62.8947 153.394 63.188 153.394C63.4813 153.394 64.3612 153.394 64.9478 153.394C66.4143 153.687 68.7607 154.566 70.5205 156.323C72.2803 158.081 73.4535 159.839 74.0401 161.304C74.6267 162.475 74.92 163.354 74.92 163.354Z" fill="url(#paint17_linear)"/>
<path d="M92.8112 170.678C92.8112 170.678 92.2246 169.799 91.3447 168.627C90.4648 167.163 88.9984 165.405 87.5319 163.354C86.652 162.475 86.0654 161.303 85.1855 160.718C84.3056 159.839 83.719 159.546 82.8391 158.96C81.9592 158.667 81.3726 158.374 81.0793 158.374C80.4927 158.374 80.4927 158.374 80.4927 158.374C80.4927 158.374 80.786 158.374 81.0793 158.081C81.6659 158.081 82.2525 158.081 83.1324 158.081C84.0123 158.374 84.8922 158.667 85.7721 159.546C86.652 160.132 87.5319 161.303 88.4118 162.182C89.8782 164.233 91.0515 166.284 91.6381 168.041C92.2247 169.506 92.8112 170.678 92.8112 170.678Z" fill="url(#paint18_linear)"/>
<path d="M112.169 170.971C112.169 170.971 111.582 170.092 110.702 168.334C109.822 166.87 108.649 164.819 106.889 162.768C105.13 160.718 103.077 159.546 101.317 158.667C100.437 158.374 99.8503 158.081 99.2637 158.081C98.6771 158.081 98.3838 158.081 98.3838 158.081C98.3838 158.081 98.6771 158.081 99.2637 158.081C99.8503 158.081 100.437 158.081 101.317 158.081C103.077 158.374 105.716 159.546 107.476 161.889C109.236 163.94 110.409 166.577 110.996 168.041C111.876 169.799 112.169 170.971 112.169 170.971Z" fill="url(#paint19_linear)"/>
<path d="M137.393 163.94C137.393 163.94 137.099 163.647 137.099 163.354C136.806 163.061 136.513 162.475 135.926 162.182C134.753 161.011 133.286 159.839 131.233 158.96C130.353 158.374 129.18 158.081 128.3 157.788C127.42 157.495 126.54 157.202 125.661 157.202C124.781 157.202 124.194 157.202 123.901 157.202C123.607 157.202 123.314 157.202 123.314 157.202C123.314 157.202 123.607 157.202 123.901 156.909C124.194 156.909 125.074 156.616 125.661 156.616C126.54 156.616 127.42 156.616 128.594 156.616C129.767 156.909 130.647 157.202 131.82 157.788C134.166 158.96 135.633 160.425 136.513 161.889C136.806 162.475 137.099 163.061 137.393 163.354C137.393 163.647 137.393 163.94 137.393 163.94Z" fill="url(#paint20_linear)"/>
<path d="M164.083 131.423C164.083 131.423 163.789 131.423 163.496 131.716C163.203 131.716 162.616 132.009 162.03 132.009C160.857 132.301 159.097 132.301 157.044 131.716C155.284 131.13 153.817 129.665 153.231 128.493C152.937 127.907 152.644 127.614 152.351 127.028C152.351 126.735 152.058 126.442 152.058 126.442C152.058 126.442 152.058 126.735 152.351 126.735C152.644 127.028 152.938 127.321 153.524 127.614C154.404 128.493 155.87 129.372 157.337 129.958C158.803 130.544 160.563 130.837 161.736 130.837C162.323 130.837 162.91 130.837 163.203 130.837C163.789 131.423 164.083 131.423 164.083 131.423Z" fill="url(#paint21_linear)"/>
<path d="M168.776 126.15C168.776 126.15 168.482 126.15 168.189 126.15C167.896 126.15 167.309 125.857 166.723 125.857C165.549 125.271 163.79 124.392 162.616 122.634C161.443 120.876 160.857 118.826 160.857 117.654C160.857 117.068 160.857 116.482 160.857 115.896C160.857 115.603 160.857 115.31 160.857 115.31C160.857 115.31 160.857 115.603 160.857 115.896C160.857 116.189 161.15 116.775 161.15 117.361C161.443 118.533 162.03 120.291 163.203 121.755C164.376 123.22 165.549 124.392 166.429 125.271C167.016 125.564 167.309 125.857 167.602 126.15C168.482 125.857 168.776 126.15 168.776 126.15Z" fill="url(#paint22_linear)"/>
<path d="M121.848 138.16V138.453C121.848 138.746 121.848 139.039 121.848 139.625C121.848 140.504 121.555 141.969 120.675 143.434C119.795 144.898 118.622 145.777 117.742 146.07C117.155 146.363 116.862 146.363 116.568 146.656C116.275 146.656 116.275 146.656 116.275 146.656C116.275 146.656 116.275 146.656 116.568 146.363C116.862 146.07 117.155 145.777 117.448 145.484C118.035 144.898 118.915 143.727 119.501 142.555C120.088 141.383 120.675 140.211 120.968 139.332C121.261 139.039 121.261 138.453 121.261 138.16C121.848 138.16 121.848 138.16 121.848 138.16Z" fill="url(#paint23_linear)"/>
<path d="M117.448 128.786C117.448 128.786 115.982 126.442 113.342 122.927C110.702 119.119 107.183 114.139 103.077 108.572C98.9705 103.006 95.1576 98.0262 92.2246 94.2178C89.2916 90.7024 87.5319 88.3588 87.5319 88.3588C87.5319 88.3588 89.5849 90.4095 92.8112 93.9249C96.0375 97.4403 100.144 102.128 104.25 107.987C108.356 113.553 111.876 118.826 113.929 122.927C116.275 126.15 117.448 128.786 117.448 128.786Z" fill="url(#paint24_linear)"/>
<path d="M106.596 76.6409C106.596 76.6409 106.596 76.9338 106.596 77.2268C106.596 77.8127 106.303 78.3986 106.01 78.9845C105.423 80.4492 103.956 82.4999 101.61 83.6717C99.2636 84.8435 96.6239 84.5505 95.1574 84.2576C94.2775 83.9646 93.691 83.6717 93.3977 83.3787C93.1044 83.0858 92.811 83.0857 92.811 83.0857C92.811 83.0857 93.1044 83.0858 93.3977 83.3787C93.691 83.6717 94.5708 83.6716 95.1574 83.9646C96.6239 84.2575 98.9704 84.2576 101.317 83.3787C103.37 82.2069 104.836 80.4492 105.716 78.9845C106.01 78.3986 106.303 77.5197 106.303 77.2268C106.596 76.6409 106.596 76.6409 106.596 76.6409Z" fill="url(#paint25_linear)"/>
<path d="M75.2133 71.9536C75.2133 71.9536 74.3335 71.0748 72.867 69.61C71.4005 68.1453 69.3474 66.3875 67.001 64.3369C64.6546 62.2862 62.6015 60.5285 60.8417 59.0638C59.0819 57.892 58.202 57.0131 58.202 57.0131C58.202 57.0131 59.3752 57.599 61.135 58.7708C62.8948 59.9426 65.2412 61.7003 67.5876 63.751C69.934 65.8017 71.9871 67.8523 73.1602 69.317C74.3334 71.0747 75.2133 71.9536 75.2133 71.9536Z" fill="url(#paint26_linear)"/>
<path d="M107.183 54.6695C107.183 54.6695 106.303 50.2753 105.716 45.0022C104.837 39.4361 104.543 34.7489 104.543 34.7489C104.543 34.7489 105.423 39.1432 106.303 44.7092C107.183 50.2753 107.183 54.6695 107.183 54.6695Z" fill="url(#paint27_linear)"/>
<path d="M160.563 103.885C160.563 103.885 160.563 103.592 160.857 102.713C160.857 101.835 161.15 100.956 161.15 99.491C161.443 96.8544 161.15 93.0461 159.977 88.6518C159.097 84.5505 157.63 80.7421 156.457 78.1056C155.284 75.469 154.697 73.7113 154.697 73.7113C154.697 73.7113 155.577 75.1761 156.75 77.8126C157.924 80.4492 159.683 83.9646 160.563 88.0659C161.736 92.1672 161.736 96.2685 161.443 98.9051C161.15 100.37 161.15 101.542 160.857 102.128C160.563 103.299 160.563 103.885 160.563 103.885Z" fill="url(#paint28_linear)"/>
<path d="M168.189 155.738C168.189 155.738 168.482 155.445 168.482 155.152C168.776 154.859 169.069 154.566 169.069 153.98C169.362 153.687 169.362 153.101 169.362 152.808C169.362 152.515 169.362 152.222 169.362 152.222C169.362 152.222 169.655 152.222 169.949 152.808C170.242 153.101 170.535 153.98 170.242 154.566C169.949 155.445 169.362 155.738 168.775 155.738C168.482 155.738 168.189 155.738 168.189 155.738Z" fill="url(#paint29_linear)"/>
<path d="M165.549 161.011C165.549 161.011 165.843 161.011 165.549 161.011C165.843 160.718 165.843 160.425 166.136 160.132C166.429 159.839 166.723 159.546 167.309 159.546C167.896 159.546 168.482 159.546 169.069 159.839C169.656 160.132 169.949 161.011 169.949 161.889C169.949 162.768 169.362 163.354 168.776 163.94C168.189 164.526 167.309 164.819 166.723 165.405C165.843 165.698 165.256 166.284 164.376 166.577C161.15 167.748 157.63 168.041 155.284 168.041C154.111 168.041 153.231 167.748 152.644 167.748C152.058 167.748 151.764 167.456 151.764 167.456C151.764 167.456 152.058 167.456 152.644 167.456C153.231 167.456 154.111 167.456 155.284 167.456C157.63 167.163 160.563 166.87 163.79 165.405C164.669 165.112 165.256 164.819 166.136 164.526C166.723 164.233 167.602 163.94 168.189 163.354C168.776 163.061 169.069 162.475 169.362 161.889C169.362 161.304 169.362 160.718 169.069 160.425C168.776 160.132 168.189 159.839 167.896 160.132C167.602 160.132 167.016 160.425 166.723 160.425C166.136 160.718 165.843 160.718 165.549 161.011C165.843 161.011 165.549 161.011 165.549 161.011Z" fill="url(#paint30_linear)"/>
</g>
<defs>
<filter id="filter0_d" x="0" y="0" width="209.306" height="209.325" filterUnits="userSpaceOnUse" color-interpolation-filters="sRGB">
<feFlood flood-opacity="0" result="BackgroundImageFix"/>
<feColorMatrix in="SourceAlpha" type="matrix" values="0 0 0 0 0 0 0 0 0 0 0 0 0 0 0 0 0 0 127 0"/>
<feOffset dy="4"/>
<feGaussianBlur stdDeviation="10"/>
<feColorMatrix type="matrix" values="0 0 0 0 0 0 0 0 0 0 0 0 0 0 0 0 0 0 0.25 0"/>
<feBlend mode="normal" in2="BackgroundImageFix" result="effect1_dropShadow"/>
<feBlend mode="normal" in="SourceGraphic" in2="effect1_dropShadow" result="shape"/>
</filter>
<linearGradient id="paint0_linear" x1="161.394" y1="53.1729" x2="95.0401" y2="144.541" gradientUnits="userSpaceOnUse">
<stop offset="0.00218341" stop-color="#EFCA9A"/>
<stop offset="0.4607" stop-color="#8C6128"/>
<stop offset="0.5586" stop-color="#946930"/>
<stop offset="0.7131" stop-color="#AB7E44"/>
<stop offset="0.9037" stop-color="#D0A066"/>
<stop offset="0.9651" stop-color="#DDAC72"/>
</linearGradient>
<linearGradient id="paint1_linear" x1="145.417" y1="37.0828" x2="160.894" y2="187.648" gradientUnits="userSpaceOnUse">
<stop offset="0.00218341" stop-color="#EFCA9A"/>
<stop offset="0.4607" stop-color="#8C6128"/>
<stop offset="0.5586" stop-color="#946930"/>
<stop offset="0.7131" stop-color="#AB7E44"/>
<stop offset="0.9037" stop-color="#D0A066"/>
<stop offset="0.9651" stop-color="#DDAC72"/>
</linearGradient>
<linearGradient id="paint2_linear" x1="167.733" y1="34.7882" x2="183.21" y2="185.354" gradientUnits="userSpaceOnUse">
<stop offset="0.00218341" stop-color="#EFCA9A"/>
<stop offset="0.4607" stop-color="#8C6128"/>
<stop offset="0.5586" stop-color="#946930"/>
<stop offset="0.7131" stop-color="#AB7E44"/>
<stop offset="0.9037" stop-color="#D0A066"/>
<stop offset="0.9651" stop-color="#DDAC72"/>
</linearGradient>
<linearGradient id="paint3_linear" x1="121.585" y1="38.3685" x2="42.6621" y2="156.604" gradientUnits="userSpaceOnUse">
<stop offset="0.294674" stop-color="#EFCA9A"/>
<stop offset="0.4607" stop-color="#8C6128"/>
<stop offset="0.5586" stop-color="#946930"/>
<stop offset="0.7131" stop-color="#AB7E44"/>
<stop offset="0.9037" stop-color="#D0A066"/>
<stop offset="0.9651" stop-color="#DDAC72"/>
</linearGradient>
<linearGradient id="paint4_linear" x1="89.3773" y1="42.8434" x2="104.854" y2="193.408" gradientUnits="userSpaceOnUse">
<stop offset="0.00218341" stop-color="#EFCA9A"/>
<stop offset="0.4607" stop-color="#8C6128"/>
<stop offset="0.5586" stop-color="#946930"/>
<stop offset="0.7131" stop-color="#AB7E44"/>
<stop offset="0.9037" stop-color="#D0A066"/>
<stop offset="0.9651" stop-color="#DDAC72"/>
</linearGradient>
<linearGradient id="paint5_linear" x1="114.152" y1="40.2982" x2="129.628" y2="190.862" gradientUnits="userSpaceOnUse">
<stop offset="0.00218341" stop-color="#EFCA9A"/>
<stop offset="0.4607" stop-color="#8C6128"/>
<stop offset="0.5586" stop-color="#946930"/>
<stop offset="0.7131" stop-color="#AB7E44"/>
<stop offset="0.9037" stop-color="#D0A066"/>
<stop offset="0.9651" stop-color="#DDAC72"/>
</linearGradient>
<linearGradient id="paint6_linear" x1="47.0264" y1="47.195" x2="62.5032" y2="197.762" gradientUnits="userSpaceOnUse">
<stop offset="0.00218341" stop-color="#EFCA9A"/>
<stop offset="0.4607" stop-color="#8C6128"/>
<stop offset="0.5586" stop-color="#946930"/>
<stop offset="0.7131" stop-color="#AB7E44"/>
<stop offset="0.9037" stop-color="#D0A066"/>
<stop offset="0.9651" stop-color="#DDAC72"/>
</linearGradient>
<linearGradient id="paint7_linear" x1="65.157" y1="45.3325" x2="80.6337" y2="195.898" gradientUnits="userSpaceOnUse">
<stop offset="0.00218341" stop-color="#EFCA9A"/>
<stop offset="0.4607" stop-color="#8C6128"/>
<stop offset="0.5586" stop-color="#946930"/>
<stop offset="0.7131" stop-color="#AB7E44"/>
<stop offset="0.9037" stop-color="#D0A066"/>
<stop offset="0.9651" stop-color="#DDAC72"/>
</linearGradient>
<linearGradient id="paint8_linear" x1="85.0167" y1="43.2923" x2="100.493" y2="193.857" gradientUnits="userSpaceOnUse">
<stop offset="0.00218341" stop-color="#EFCA9A"/>
<stop offset="0.4607" stop-color="#8C6128"/>
<stop offset="0.5586" stop-color="#946930"/>
<stop offset="0.7131" stop-color="#AB7E44"/>
<stop offset="0.9037" stop-color="#D0A066"/>
<stop offset="0.9651" stop-color="#DDAC72"/>
</linearGradient>
<linearGradient id="paint9_linear" x1="33.2496" y1="48.6118" x2="48.7264" y2="199.179" gradientUnits="userSpaceOnUse">
<stop offset="0.00218341" stop-color="#EFCA9A"/>
<stop offset="0.4607" stop-color="#8C6128"/>
<stop offset="0.5586" stop-color="#946930"/>
<stop offset="0.7131" stop-color="#AB7E44"/>
<stop offset="0.9037" stop-color="#D0A066"/>
<stop offset="0.9651" stop-color="#DDAC72"/>
</linearGradient>
<linearGradient id="paint10_linear" x1="126.123" y1="39.0669" x2="141.6" y2="189.631" gradientUnits="userSpaceOnUse">
<stop offset="0.00218341" stop-color="#EFCA9A"/>
<stop offset="0.4607" stop-color="#8C6128"/>
<stop offset="0.5586" stop-color="#946930"/>
<stop offset="0.7131" stop-color="#AB7E44"/>
<stop offset="0.9037" stop-color="#D0A066"/>
<stop offset="0.9651" stop-color="#DDAC72"/>
</linearGradient>
<linearGradient id="paint11_linear" x1="150.138" y1="36.5996" x2="165.614" y2="187.162" gradientUnits="userSpaceOnUse">
<stop offset="0.00218341" stop-color="#EFCA9A"/>
<stop offset="0.4607" stop-color="#8C6128"/>
<stop offset="0.5586" stop-color="#946930"/>
<stop offset="0.7131" stop-color="#AB7E44"/>
<stop offset="0.9037" stop-color="#D0A066"/>
<stop offset="0.9651" stop-color="#DDAC72"/>
</linearGradient>
<linearGradient id="paint12_linear" x1="141.453" y1="37.4897" x2="156.93" y2="188.056" gradientUnits="userSpaceOnUse">
<stop offset="0.00218341" stop-color="#EFCA9A"/>
<stop offset="0.4607" stop-color="#8C6128"/>
<stop offset="0.5586" stop-color="#946930"/>
<stop offset="0.7131" stop-color="#AB7E44"/>
<stop offset="0.9037" stop-color="#D0A066"/>
<stop offset="0.9651" stop-color="#DDAC72"/>
</linearGradient>
<linearGradient id="paint13_linear" x1="166.303" y1="34.936" x2="181.78" y2="185.501" gradientUnits="userSpaceOnUse">
<stop offset="0.00218341" stop-color="#EFCA9A"/>
<stop offset="0.4607" stop-color="#8C6128"/>
<stop offset="0.5586" stop-color="#946930"/>
<stop offset="0.7131" stop-color="#AB7E44"/>
<stop offset="0.9037" stop-color="#D0A066"/>
<stop offset="0.9651" stop-color="#DDAC72"/>
</linearGradient>
<linearGradient id="paint14_linear" x1="110.263" y1="40.6962" x2="125.739" y2="191.263" gradientUnits="userSpaceOnUse">
<stop offset="0.00218341" stop-color="#EFCA9A"/>
<stop offset="0.4607" stop-color="#8C6128"/>
<stop offset="0.5586" stop-color="#946930"/>
<stop offset="0.7131" stop-color="#AB7E44"/>
<stop offset="0.9037" stop-color="#D0A066"/>
<stop offset="0.9651" stop-color="#DDAC72"/>
</linearGradient>
<linearGradient id="paint15_linear" x1="157.307" y1="35.8597" x2="172.785" y2="186.426" gradientUnits="userSpaceOnUse">
<stop offset="0.00218341" stop-color="#EFCA9A"/>
<stop offset="0.4607" stop-color="#8C6128"/>
<stop offset="0.5586" stop-color="#946930"/>
<stop offset="0.7131" stop-color="#AB7E44"/>
<stop offset="0.9037" stop-color="#D0A066"/>
<stop offset="0.9651" stop-color="#DDAC72"/>
</linearGradient>
<linearGradient id="paint16_linear" x1="156.657" y1="35.9275" x2="172.133" y2="186.494" gradientUnits="userSpaceOnUse">
<stop offset="0.00218341" stop-color="#EFCA9A"/>
<stop offset="0.4607" stop-color="#8C6128"/>
<stop offset="0.5586" stop-color="#946930"/>
<stop offset="0.7131" stop-color="#AB7E44"/>
<stop offset="0.9037" stop-color="#D0A066"/>
<stop offset="0.9651" stop-color="#DDAC72"/>
</linearGradient>
<linearGradient id="paint17_linear" x1="57.2426" y1="46.1479" x2="72.7193" y2="196.711" gradientUnits="userSpaceOnUse">
<stop offset="0.00218341" stop-color="#EFCA9A"/>
<stop offset="0.4607" stop-color="#8C6128"/>
<stop offset="0.5586" stop-color="#946930"/>
<stop offset="0.7131" stop-color="#AB7E44"/>
<stop offset="0.9037" stop-color="#D0A066"/>
<stop offset="0.9651" stop-color="#DDAC72"/>
</linearGradient>
<linearGradient id="paint18_linear" x1="74.1213" y1="44.4142" x2="89.5977" y2="194.977" gradientUnits="userSpaceOnUse">
<stop offset="0.00218341" stop-color="#EFCA9A"/>
<stop offset="0.4607" stop-color="#8C6128"/>
<stop offset="0.5586" stop-color="#946930"/>
<stop offset="0.7131" stop-color="#AB7E44"/>
<stop offset="0.9037" stop-color="#D0A066"/>
<stop offset="0.9651" stop-color="#DDAC72"/>
</linearGradient>
<linearGradient id="paint19_linear" x1="92.9504" y1="42.479" x2="108.427" y2="193.041" gradientUnits="userSpaceOnUse">
<stop offset="0.00218341" stop-color="#EFCA9A"/>
<stop offset="0.4607" stop-color="#8C6128"/>
<stop offset="0.5586" stop-color="#946930"/>
<stop offset="0.7131" stop-color="#AB7E44"/>
<stop offset="0.9037" stop-color="#D0A066"/>
<stop offset="0.9651" stop-color="#DDAC72"/>
</linearGradient>
<linearGradient id="paint20_linear" x1="117.897" y1="39.9078" x2="133.374" y2="190.478" gradientUnits="userSpaceOnUse">
<stop offset="0.00218341" stop-color="#EFCA9A"/>
<stop offset="0.4607" stop-color="#8C6128"/>
<stop offset="0.5586" stop-color="#946930"/>
<stop offset="0.7131" stop-color="#AB7E44"/>
<stop offset="0.9037" stop-color="#D0A066"/>
<stop offset="0.9651" stop-color="#DDAC72"/>
</linearGradient>
<linearGradient id="paint21_linear" x1="148.775" y1="36.7422" x2="164.251" y2="187.3" gradientUnits="userSpaceOnUse">
<stop offset="0.00218341" stop-color="#EFCA9A"/>
<stop offset="0.4607" stop-color="#8C6128"/>
<stop offset="0.5586" stop-color="#946930"/>
<stop offset="0.7131" stop-color="#AB7E44"/>
<stop offset="0.9037" stop-color="#D0A066"/>
<stop offset="0.9651" stop-color="#DDAC72"/>
</linearGradient>
<linearGradient id="paint22_linear" x1="155.915" y1="36.0038" x2="171.392" y2="186.569" gradientUnits="userSpaceOnUse">
<stop offset="0.00218341" stop-color="#EFCA9A"/>
<stop offset="0.4607" stop-color="#8C6128"/>
<stop offset="0.5586" stop-color="#946930"/>
<stop offset="0.7131" stop-color="#AB7E44"/>
<stop offset="0.9037" stop-color="#D0A066"/>
<stop offset="0.9651" stop-color="#DDAC72"/>
</linearGradient>
<linearGradient id="paint23_linear" x1="108.805" y1="40.844" x2="124.282" y2="191.413" gradientUnits="userSpaceOnUse">
<stop offset="0.00218341" stop-color="#EFCA9A"/>
<stop offset="0.4607" stop-color="#8C6128"/>
<stop offset="0.5586" stop-color="#946930"/>
<stop offset="0.7131" stop-color="#AB7E44"/>
<stop offset="0.9037" stop-color="#D0A066"/>
<stop offset="0.9651" stop-color="#DDAC72"/>
</linearGradient>
<linearGradient id="paint24_linear" x1="95.7234" y1="42.1909" x2="111.2" y2="192.756" gradientUnits="userSpaceOnUse">
<stop offset="0.00218341" stop-color="#EFCA9A"/>
<stop offset="0.4607" stop-color="#8C6128"/>
<stop offset="0.5586" stop-color="#946930"/>
<stop offset="0.7131" stop-color="#AB7E44"/>
<stop offset="0.9037" stop-color="#D0A066"/>
<stop offset="0.9651" stop-color="#DDAC72"/>
</linearGradient>
<linearGradient id="paint25_linear" x1="95.9966" y1="42.163" x2="111.473" y2="192.727" gradientUnits="userSpaceOnUse">
<stop offset="0.00218341" stop-color="#EFCA9A"/>
<stop offset="0.4607" stop-color="#8C6128"/>
<stop offset="0.5586" stop-color="#946930"/>
<stop offset="0.7131" stop-color="#AB7E44"/>
<stop offset="0.9037" stop-color="#D0A066"/>
<stop offset="0.9651" stop-color="#DDAC72"/>
</linearGradient>
<linearGradient id="paint26_linear" x1="64.7411" y1="45.3759" x2="80.2179" y2="195.939" gradientUnits="userSpaceOnUse">
<stop offset="0.00218341" stop-color="#EFCA9A"/>
<stop offset="0.4607" stop-color="#8C6128"/>
<stop offset="0.5586" stop-color="#946930"/>
<stop offset="0.7131" stop-color="#AB7E44"/>
<stop offset="0.9037" stop-color="#D0A066"/>
<stop offset="0.9651" stop-color="#DDAC72"/>
</linearGradient>
<linearGradient id="paint27_linear" x1="105.591" y1="41.1765" x2="121.068" y2="191.744" gradientUnits="userSpaceOnUse">
<stop offset="0.00218341" stop-color="#EFCA9A"/>
<stop offset="0.4607" stop-color="#8C6128"/>
<stop offset="0.5586" stop-color="#946930"/>
<stop offset="0.7131" stop-color="#AB7E44"/>
<stop offset="0.9037" stop-color="#D0A066"/>
<stop offset="0.9651" stop-color="#DDAC72"/>
</linearGradient>
<linearGradient id="paint28_linear" x1="153.248" y1="36.2774" x2="168.725" y2="186.844" gradientUnits="userSpaceOnUse">
<stop offset="0.00218341" stop-color="#EFCA9A"/>
<stop offset="0.4607" stop-color="#8C6128"/>
<stop offset="0.5586" stop-color="#946930"/>
<stop offset="0.7131" stop-color="#AB7E44"/>
<stop offset="0.9037" stop-color="#D0A066"/>
<stop offset="0.9651" stop-color="#DDAC72"/>
</linearGradient>
<linearGradient id="paint29_linear" x1="157.025" y1="35.8861" x2="172.503" y2="186.456" gradientUnits="userSpaceOnUse">
<stop offset="0.00218341" stop-color="#EFCA9A"/>
<stop offset="0.4607" stop-color="#8C6128"/>
<stop offset="0.5586" stop-color="#946930"/>
<stop offset="0.7131" stop-color="#AB7E44"/>
<stop offset="0.9037" stop-color="#D0A066"/>
<stop offset="0.9651" stop-color="#DDAC72"/>
</linearGradient>
<linearGradient id="paint30_linear" x1="147.737" y1="36.8427" x2="163.213" y2="187.41" gradientUnits="userSpaceOnUse">
<stop offset="0.00218341" stop-color="#EFCA9A"/>
<stop offset="0.4607" stop-color="#8C6128"/>
<stop offset="0.5586" stop-color="#946930"/>
<stop offset="0.7131" stop-color="#AB7E44"/>
<stop offset="0.9037" stop-color="#D0A066"/>
<stop offset="0.9651" stop-color="#DDAC72"/>
</linearGradient>
</defs>
</svg>
